<svg width="11" height="13" viewBox="0 0 11 13" fill="none" xmlns="http://www.w3.org/2000/svg">
<path d="M2.30318 12.6512C2.21518 12.6287 2.12653 12.6085 2.03916 12.5833C1.39197 12.396 0.937638 11.8269 0.904595 11.1628C0.901101 11.0928 0.901418 11.0227 0.901418 10.953C0.901418 8.60659 0.902477 6.26028 0.904595 3.91407C0.904595 3.79894 0.865834 3.75324 0.755268 3.71496C0.261537 3.54345 -0.0606273 3.02861 0.00958812 2.54077C0.0855224 2.01406 0.536361 1.58468 1.08252 1.56154C1.62263 1.5375 2.16593 1.5473 2.70795 1.54225H2.82519C2.83314 1.37845 2.83695 1.21999 2.84966 1.06183C2.89573 0.481414 3.41932 0.0107879 4.08049 0.00663353C5.02824 0.000402042 5.97631 -0.00523605 6.92374 0.00841389C7.65449 0.0190964 8.15203 0.520583 8.16665 1.22504C8.16887 1.32356 8.16665 1.42237 8.16665 1.53691C8.21875 1.53899 8.26482 1.54284 8.31121 1.54284C8.7827 1.54284 9.25451 1.53869 9.726 1.54284C10.2858 1.54937 10.6963 1.78023 10.9162 2.27134C11.1614 2.81941 10.8501 3.50072 10.254 3.7117C10.1381 3.75295 10.099 3.80369 10.0993 3.9212C10.1033 6.27531 10.1045 8.62943 10.1028 10.9836C10.1028 11.4738 9.95571 11.9082 9.56619 12.2533C9.3483 12.4474 9.07404 12.5774 8.77761 12.6269C8.75317 12.6329 8.72936 12.6409 8.70645 12.6509L2.30318 12.6512ZM1.53622 3.80161V3.93158C1.53622 6.2857 1.53622 8.64051 1.53622 10.996C1.53616 11.0865 1.54359 11.1769 1.55846 11.2663C1.63884 11.7275 2.02264 12.0557 2.50938 12.0566C4.5021 12.0609 6.49482 12.0609 8.48754 12.0566C8.81225 12.0566 9.07214 11.9254 9.26245 11.6758C9.42131 11.4681 9.46674 11.2334 9.46674 10.9868C9.46674 8.63606 9.46674 6.2854 9.46674 3.93485C9.46674 3.89123 9.46261 3.8479 9.46039 3.80102L1.53622 3.80161ZM5.50513 3.2019H9.65674C9.72282 3.20251 9.78889 3.19983 9.85467 3.19389C10.0008 3.18051 10.1354 3.11376 10.2291 3.00817C10.3228 2.90258 10.3681 2.7667 10.3551 2.63009C10.3274 2.31733 10.0837 2.13543 9.68978 2.13513C6.90001 2.13513 4.11025 2.13513 1.32049 2.13513C1.25447 2.13478 1.18852 2.13905 1.12318 2.14789C0.993518 2.16635 0.874746 2.22631 0.787179 2.31752C0.699611 2.40872 0.648685 2.5255 0.643113 2.6479C0.638159 2.7682 0.677214 2.8865 0.753846 2.98331C0.830478 3.08013 0.94012 3.14969 1.06472 3.18054C1.15544 3.19769 1.24801 3.20477 1.3405 3.20161C2.72787 3.2024 4.11608 3.2025 5.50513 3.2019ZM7.52232 1.53483C7.52232 1.37786 7.53661 1.23305 7.51914 1.0918C7.48927 0.846994 7.33296 0.689723 7.08069 0.620287C7.01706 0.603905 6.95129 0.595914 6.88529 0.596548C5.96392 0.595163 5.04254 0.595163 4.12116 0.596548C3.7901 0.596548 3.54005 0.769546 3.49144 1.05323C3.46476 1.20812 3.48668 1.37014 3.48668 1.53513L7.52232 1.53483Z" fill="#ADADAD"/>
<path d="M3.94469 7.6708C3.94469 8.58 3.94627 9.4892 3.94214 10.3984C3.94231 10.4837 3.92109 10.5678 3.88019 10.6441C3.82173 10.7465 3.70926 10.7842 3.58598 10.7667C3.52604 10.7616 3.46931 10.7391 3.42373 10.7024C3.37815 10.6656 3.34601 10.6165 3.33181 10.5619C3.31793 10.5144 3.31078 10.4654 3.31052 10.4162C3.30925 8.59345 3.30925 6.77069 3.31052 4.94793C3.30934 4.87846 3.32407 4.80956 3.35373 4.74585C3.41187 4.63131 3.52022 4.58087 3.65747 4.59244C3.71973 4.59449 3.77953 4.61562 3.82765 4.65257C3.87576 4.68952 3.90952 4.74024 3.92372 4.79689C3.93876 4.85685 3.94507 4.91844 3.94246 4.97998C3.94479 5.87672 3.94553 6.77366 3.94469 7.6708Z" fill="#ADADAD"/>
<path d="M5.18507 7.67587C5.18507 6.76587 5.18507 5.85657 5.18507 4.94796C5.18507 4.73371 5.28484 4.60968 5.46562 4.59187C5.54271 4.58121 5.62121 4.59915 5.68433 4.64185C5.74744 4.68455 5.79016 4.74862 5.80335 4.82036C5.81426 4.86855 5.81948 4.9177 5.81892 4.96695C5.81892 6.77289 5.81892 8.57904 5.81892 10.3854C5.81948 10.4386 5.81362 10.4918 5.80144 10.5438C5.78635 10.6086 5.74786 10.6665 5.69244 10.7079C5.63701 10.7493 5.56803 10.7716 5.49707 10.7711C5.42599 10.7699 5.35748 10.7461 5.30288 10.7036C5.24828 10.6611 5.21086 10.6024 5.19683 10.5373C5.18702 10.4847 5.18308 10.4313 5.18507 10.378C5.18465 9.47766 5.18465 8.57696 5.18507 7.67587Z" fill="#ADADAD"/>
<path d="M7.0568 7.68508C7.0568 6.78419 7.0568 5.88319 7.0568 4.9821C7.0568 4.72631 7.16292 4.59219 7.36626 4.58892C7.56959 4.58566 7.6916 4.72661 7.6916 4.98299C7.6916 6.78102 7.6916 8.57896 7.6916 10.3768C7.6916 10.6329 7.57182 10.7768 7.3653 10.7715C7.15879 10.7661 7.0568 10.632 7.0568 10.3759C7.05659 9.47837 7.05659 8.58143 7.0568 7.68508Z" fill="#ADADAD"/>
</svg>
