<svg width="19" height="12" viewBox="0 0 19 12" fill="none" xmlns="http://www.w3.org/2000/svg">
<path d="M18.8331 6.1089C18.741 6.25999 18.6682 6.42399 18.5567 6.5608C17.2296 8.22239 15.6914 9.6472 13.8405 10.7141C12.6221 11.4157 11.323 11.8874 9.90883 11.9832C8.75488 12.061 7.63918 11.8657 6.56032 11.4562C4.93328 10.838 3.53519 9.86002 2.25779 8.69594C1.5105 8.01409 0.822563 7.2699 0.201422 6.47143C-0.0662187 6.12871 -0.0680613 5.86751 0.201422 5.52571C1.53733 3.83095 3.09296 2.37758 4.97013 1.29458C6.44423 0.44421 8.01737 -0.0689608 9.74391 0.0075081C10.9292 0.0595622 12.0472 0.379719 13.1067 0.900721C15.3349 1.99524 17.1181 3.62274 18.6452 5.55335C18.723 5.65193 18.7686 5.7763 18.8294 5.8887L18.8331 6.1089ZM17.4512 6.01032C17.0679 5.59573 16.7284 5.20924 16.3681 4.84302C15.1552 3.61214 13.8129 2.55632 12.2149 1.86303C11.4184 1.51708 10.5892 1.29044 9.71489 1.24944C8.37899 1.18633 7.1495 1.55946 5.97897 2.1643C4.67117 2.84054 3.53749 3.75356 2.50931 4.79649C2.13157 5.17837 1.77733 5.58375 1.39406 5.99834C1.76581 6.40003 2.10854 6.79113 2.47338 7.16058C3.6826 8.38592 5.01943 9.43898 6.61145 10.1304C7.40839 10.4764 8.23665 10.7049 9.11051 10.7477C10.4464 10.8131 11.6759 10.44 12.8478 9.83791C13.9842 9.25334 14.9926 8.4868 15.9107 7.60511C16.4349 7.10115 16.9232 6.55942 17.4512 6.01032Z" fill="#999999"/>
<path d="M13.1378 6.00091C13.1351 8.05958 11.4574 9.73223 9.40652 9.71887C8.42133 9.71558 7.47765 9.32168 6.78248 8.62356C6.0873 7.92545 5.69738 6.98013 5.69824 5.99492C5.70147 3.93579 7.37826 2.26361 9.42956 2.27743C10.4147 2.2806 11.3584 2.6744 12.0536 3.37243C12.7488 4.07047 13.1387 5.01575 13.1378 6.00091ZM11.8973 5.99446C11.8961 5.33738 11.6344 4.70758 11.1697 4.24304C10.705 3.7785 10.0751 3.51711 9.41804 3.51613C8.76101 3.51734 8.13115 3.77844 7.66596 4.24243C7.20076 4.70641 6.93803 5.3356 6.93511 5.99262C6.92728 7.35893 8.06049 8.49122 9.42541 8.48016C10.0825 8.47712 10.7115 8.21381 11.1748 7.74792C11.6381 7.28202 11.8979 6.65151 11.8973 5.99446Z" fill="#999999"/>
</svg>
